<svg version="1" xmlns="http://www.w3.org/2000/svg" width="346.667" height="346.667" viewBox="0 0 260.000000 260.000000"><path d="M110.7 8.6C81.9 13 53.9 29 35.2 51.6c-12.1 14.8-19.6 29.5-25 49.3-2.4 8.9-2.6 11.2-2.6 30.6 0 18.4.2 22.1 2.2 29.8 8.3 32.9 26 58.2 53.1 75.9 40.5 26.5 93.7 26.5 134.2 0 26.8-17.5 44.2-42.1 52.6-74.2 3.4-12.8 4.3-39 1.9-52.6-6-34.5-24.7-63.5-53.4-82.7C173.3 11 140.7 3.9 110.7 8.6zm36.9 98.3c8.6 3.9 13.2 13.2 12 24.3-1.2 12-8.3 19.5-19.3 20.5-6.9.6-12-.7-16.4-4.4-12-10.1-9.5-33.3 4.2-40.1 5.5-2.8 13.8-2.9 19.5-.3zm-77.5 14.6c1.5 8.2 2.8 15.2 2.9 15.5.1.3 1.6-6.5 3.4-15l3.1-15.5 5.6-.3c4.3-.2 5.8.1 6.2 1.2.3.8 1.6 7.6 2.9 15 1.2 7.5 2.5 13.6 2.8 13.6.3 0 1.4-4.6 2.3-10.3 1-5.6 2.2-12.3 2.8-15l1.1-4.7h5.4c3 0 5.4.1 5.4.2-.1.2-2.7 10.2-5.8 22.3l-5.8 22H90.6l-2.7-14.3c-2.6-13.9-3.8-18.1-4-13.1 0 1.3-1.2 8-2.8 14.9l-2.7 12.5-6 .3-5.9.3-4.8-20.3c-2.6-11.2-5-21.3-5.4-22.6-.5-2.2-.4-2.3 5.3-2l5.9.3 2.6 15zm125.9-11v4.5h-13.3l.5 18 .5 18H173v-36h-12v-9h35v4.5z"/><path d="M134.5 113.9c-6.6 2.9-9.5 14.2-5.6 22.6 2.4 5.3 4.6 7 9.1 7s6.7-1.7 9.1-7c4.4-9.6.4-21.6-7.6-23-1.7-.2-3.9-.1-5 .4z"/></svg>